<?xml version="1.0" standalone="no"?>
<!DOCTYPE svg PUBLIC "-//W3C//DTD SVG 20010904//EN"
 "http://www.w3.org/TR/2001/REC-SVG-20010904/DTD/svg10.dtd">
<svg version="1.0" xmlns="http://www.w3.org/2000/svg"
 width="270.000000pt" height="270.000000pt" viewBox="0 0 270.000000 270.000000"
 preserveAspectRatio="xMidYMid meet">

<g transform="translate(0.000000,270.000000) scale(0.100000,-0.100000)"
fill="#000000" stroke="none">
<path d="M1230 2120 c-110 -20 -229 -70 -320 -134 -36 -25 -76 -54 -90 -62
-29 -19 -106 -111 -117 -140 -4 -10 -15 -26 -25 -34 -22 -18 -74 -143 -94
-225 -15 -67 -18 -251 -4 -305 5 -19 16 -65 25 -103 21 -87 32 -97 105 -97 55
0 58 -1 70 -31 8 -17 23 -40 34 -51 34 -33 118 -68 150 -62 15 2 25 1 22 -4
-10 -16 149 15 219 43 104 42 209 40 325 -4 68 -27 102 -34 170 -36 47 -1 90
0 95 3 6 4 19 8 30 10 30 4 87 54 110 94 18 35 22 36 83 40 77 5 84 12 107
107 9 36 20 82 25 101 21 81 2 301 -31 362 -7 13 -14 30 -16 38 -4 26 -54 130
-62 130 -4 0 -17 18 -30 40 -12 22 -27 40 -33 40 -6 0 -9 3 -5 6 10 10 -93
104 -165 151 -166 107 -392 156 -578 123z m252 -211 c29 -6 85 -26 123 -44
200 -92 311 -263 323 -495 3 -76 9 -112 22 -130 52 -76 44 -156 -21 -215 -22
-19 -43 -35 -48 -35 -6 0 -11 106 -13 248 -3 230 -5 251 -27 305 -52 132 -179
251 -316 295 -121 40 -288 26 -407 -34 -63 -32 -159 -121 -194 -181 -61 -105
-67 -138 -72 -395 -2 -131 -7 -238 -12 -238 -35 0 -100 96 -100 150 0 37 21
90 43 109 14 11 17 32 17 111 0 170 54 295 175 408 132 124 329 178 507 141z
m9 -105 c90 -27 151 -64 217 -130 42 -44 62 -72 62 -89 0 -42 -27 -30 -98 43
-77 79 -144 115 -245 132 -147 26 -315 -40 -402 -159 -31 -41 -61 -53 -71 -26
-7 18 12 46 76 111 54 54 129 97 207 119 68 19 189 18 254 -1z m-651 -108 c0
-14 -4 -28 -10 -31 -5 -3 -10 1 -10 9 0 9 -4 16 -10 16 -5 0 -10 -9 -10 -19 0
-21 -26 -36 -35 -20 -4 5 1 12 9 15 9 3 16 14 16 24 0 16 12 24 43 29 4 0 7
-10 7 -23z m530 -54 c48 -46 56 -64 50 -117 -4 -41 -20 -39 -20 2 0 33 -6 48
-31 72 -17 17 -35 31 -40 31 -5 0 -9 -40 -9 -89 0 -79 -3 -93 -23 -117 -28
-32 -70 -35 -99 -6 -39 39 16 107 67 84 l25 -12 0 94 c0 126 5 130 80 58z
m-192 -36 c-9 -6 -17 -20 -19 -31 -5 -24 -39 -33 -39 -10 0 8 7 18 15 21 8 4
15 12 15 19 0 15 20 25 34 17 5 -3 2 -10 -6 -16z m406 -36 c20 -22 36 -47 36
-55 0 -21 -5 -19 -37 13 l-28 27 -5 -98 c-4 -83 -8 -101 -24 -113 -24 -17 -31
-17 -57 -4 -39 22 -13 89 31 77 19 -5 20 0 20 87 0 123 7 129 64 66z m470 -46
c21 -21 20 -37 -3 -58 -15 -14 -24 -15 -40 -6 -26 13 -28 55 -3 69 23 14 28
14 46 -5z m-314 -39 c13 -16 6 -35 -15 -35 -18 0 -28 17 -21 35 7 19 20 19 36
0z m-1019 -18 c-10 -9 -11 -8 -5 6 3 10 9 15 12 12 3 -3 0 -11 -7 -18z m327 0
c4 -20 -25 -34 -40 -19 -15 15 -1 44 19 40 10 -2 19 -11 21 -21z m663 -285 c1
-92 1 -179 1 -194 1 -44 -9 -58 -41 -58 -20 0 -36 8 -50 26 -19 24 -21 40 -21
183 0 86 3 166 6 178 8 28 62 55 86 42 16 -9 18 -27 19 -177z m107 -41 l-3
-216 -25 0 -25 0 -3 210 c-2 184 0 211 14 222 9 6 22 9 30 6 12 -4 14 -42 12
-222z m-863 -1 l0 -215 -25 0 -25 0 -3 205 c-1 112 0 211 3 218 3 7 15 12 27
10 l23 -3 0 -215z m150 197 c11 -17 17 -64 21 -173 8 -172 -3 -218 -52 -230
-56 -14 -59 -4 -62 197 -1 101 0 194 3 207 8 32 68 31 90 -1z m-413 -16 c-5
-3 -12 -17 -13 -31 -3 -17 -10 -25 -23 -25 -27 0 -33 25 -7 32 12 3 21 13 21
23 0 10 6 20 13 23 15 5 23 -13 9 -22z m1392 -34 c8 -13 7 -20 -4 -27 -8 -5
-19 -10 -23 -10 -12 0 -20 28 -13 46 7 19 25 15 40 -9z m-698 -25 c27 -23 44
-55 44 -81 0 -26 -18 -28 -27 -3 -8 22 -34 52 -45 52 -4 0 -8 -42 -8 -94 0
-109 -15 -139 -68 -139 -42 0 -62 19 -62 59 0 39 26 58 71 52 l29 -5 0 83 c0
121 6 128 66 76z m122 -124 c-2 -7 3 -12 10 -10 8 1 11 -2 7 -7 -8 -14 -35 -2
-35 15 0 8 5 14 10 14 6 0 9 -6 8 -12z"/>
<path d="M775 825 c24 -21 39 -25 72 -23 22 2 39 -1 36 -6 -6 -8 31 0 56 14
27 14 -31 33 -114 37 l-80 4 30 -26z"/>
<path d="M1825 840 c-11 -4 -31 -11 -44 -15 -23 -8 -24 -9 -5 -16 31 -12 129
-10 143 4 11 10 13 9 7 -3 -5 -9 -2 -8 7 3 8 9 19 17 25 17 6 0 14 5 17 10 7
12 -119 12 -150 0z"/>
<path d="M856 741 c-7 -11 99 -81 184 -120 186 -87 472 -83 669 9 68 32 161
96 161 111 0 16 -110 9 -193 -12 -67 -17 -95 -20 -157 -13 -93 9 -221 9 -320
-1 -62 -6 -89 -4 -151 14 -77 21 -183 28 -193 12z"/>
</g>
</svg>
